<?xml version="1.0" standalone="no"?>
<!DOCTYPE svg PUBLIC "-//W3C//DTD SVG 20010904//EN"
 "http://www.w3.org/TR/2001/REC-SVG-20010904/DTD/svg10.dtd">
<svg version="1.0" xmlns="http://www.w3.org/2000/svg"
 width="720.000000pt" height="720.000000pt" viewBox="0 0 720.000000 720.000000"
 preserveAspectRatio="xMidYMid meet">
<metadata>
Created by potrace 1.11, written by Peter Selinger 2001-2013
</metadata>
<g transform="translate(0.000000,720.000000) scale(0.100000,-0.100000)"
fill="#000000" stroke="none">
<path d="M3519 6232 c-133 -71 -374 -206 -631 -352 l-237 -135 -1 -541 0 -542
-202 -113 c-112 -62 -219 -121 -238 -132 -19 -11 -55 -31 -80 -45 -25 -14 -79
-44 -120 -67 -41 -24 -93 -53 -115 -65 -105 -58 -150 -84 -154 -87 -2 -1 -6
-238 -8 -525 -4 -379 -8 -526 -16 -535 -7 -6 -34 -24 -62 -39 -27 -15 -205
-116 -395 -224 -190 -108 -369 -210 -397 -226 l-53 -29 4 -569 4 -569 54 -29
c29 -17 91 -51 138 -76 47 -25 97 -54 112 -64 14 -10 28 -18 31 -18 3 0 36
-17 74 -39 193 -109 309 -171 438 -237 l110 -57 85 50 c89 52 562 316 711 396
48 26 97 48 110 48 13 1 78 -29 144 -66 181 -103 598 -329 701 -381 l92 -46
93 55 c52 30 115 66 142 81 26 14 66 37 90 50 23 13 160 89 305 170 l263 146
322 -178 c549 -305 588 -325 614 -315 10 4 50 26 88 48 81 48 59 36 500 280
187 104 342 190 343 191 2 1 6 256 8 566 l4 563 -33 19 c-17 10 -90 51 -162
91 -71 40 -148 83 -170 95 -22 13 -90 51 -151 85 -189 107 -338 193 -356 207
-15 12 -17 62 -21 541 -2 296 -8 532 -13 537 -5 4 -83 50 -174 100 -91 51
-230 130 -310 175 -80 45 -163 93 -185 105 -22 12 -84 47 -137 77 l-98 55 0
542 0 543 -27 14 c-16 7 -50 27 -78 43 -27 16 -70 40 -95 54 -25 14 -133 75
-240 135 -211 120 -224 127 -377 210 -156 84 -146 82 -244 29z"/>
</g>
</svg>
